<svg width="16" height="16" fill="none" xmlns="http://www.w3.org/2000/svg"><path d="M8.157 3c.586 0 1.322-.397 1.76-.926.397-.479.686-1.148.686-1.818 0-.09-.008-.182-.025-.256C9.925.025 9.14.438 8.67.992c-.372.421-.71 1.082-.71 1.76 0 .1.016.198.024.231A.95.95 0 0 0 8.157 3ZM6.09 13c.801 0 1.157-.537 2.157-.537 1.016 0 1.24.52 2.132.52.876 0 1.463-.81 2.016-1.603.62-.909.876-1.801.893-1.843-.058-.016-1.736-.702-1.736-2.628 0-1.67 1.323-2.421 1.397-2.48-.876-1.255-2.207-1.289-2.57-1.289-.984 0-1.785.596-2.29.596-.545 0-1.264-.562-2.115-.562-1.62 0-3.265 1.338-3.265 3.867 0 1.57.612 3.232 1.364 4.306C4.72 12.257 5.281 13 6.091 13Z" fill="#fff"/></svg>